<svg version="1.2" xmlns="http://www.w3.org/2000/svg" viewBox="0 0 97 119" width="97" height="119">
	<title>calculator</title>
	<style>
		.s0 { fill: #000000 } 
	</style>
	<path id="Shape 1" class="s0" d="m85.4 0h-73.8c-6.4 0-11.6 5.2-11.6 11.6v95.8c0 6.4 5.2 11.6 11.6 11.6h73.8c6.4 0 11.6-5.2 11.6-11.6v-95.8c0-6.4-5.2-11.6-11.6-11.6zm-69 20.1c0-2.5 2-4.5 4.4-4.5h55.4c2.4 0 4.4 2 4.4 4.5v14.1c0 2.4-2 4.4-4.4 4.4h-55.4c-2.4 0-4.4-2-4.4-4.4v-14.1zm14.5 82.8c0 1-0.8 1.8-1.8 1.8h-17.1c-1 0-1.8-0.8-1.8-1.8v-9.5c0-1 0.8-1.8 1.8-1.8h17.1c1 0 1.8 0.8 1.8 1.8zm0-20.3c0 1-0.8 1.8-1.8 1.8h-17.1c-1 0-1.8-0.8-1.8-1.8v-9.5c0-1 0.8-1.8 1.8-1.8h17.1c1 0 1.8 0.8 1.8 1.8zm0-20.5c0 1-0.8 1.8-1.8 1.8h-17.1c-1 0-1.8-0.8-1.8-1.8v-9.5c0-1 0.8-1.8 1.8-1.8h17.1c1 0 1.8 0.8 1.8 1.8zm28.2 40.7c0 1-0.8 1.8-1.8 1.8h-17.1c-1 0-1.8-0.8-1.8-1.8v-9.5c0-1 0.8-1.8 1.8-1.8h17.1c1 0 1.8 0.8 1.8 1.8zm0-20.3c0 1-0.8 1.8-1.8 1.8h-17.1c-1 0-1.8-0.8-1.8-1.8v-9.5c0-1 0.8-1.8 1.8-1.8h17.1c1 0 1.8 0.8 1.8 1.8zm0-20.5c0 1-0.8 1.8-1.8 1.8h-17.1c-1 0-1.8-0.8-1.8-1.8v-9.5c0-1 0.8-1.8 1.8-1.8h17.1c1 0 1.8 0.8 1.8 1.8zm27.7 40.7c0 1-0.8 1.8-1.8 1.8h-17.1c-1 0-1.8-0.8-1.8-1.8 0-2.9 0-26.8 0-29.8 0-1 0.8-1.8 1.8-1.8h17.1c1 0 1.8 0.8 1.8 1.8 0 3 0 26.9 0 29.8zm0-40.7c0 1-0.8 1.8-1.8 1.8h-17.1c-1 0-1.8-0.8-1.8-1.8v-9.5c0-1 0.8-1.9 1.8-1.9h17.1c1 0 1.8 0.9 1.8 1.9z"/>
</svg>