<svg version="1.2" xmlns="http://www.w3.org/2000/svg" viewBox="0 0 97 97" width="97" height="97">
	<title>clock-circular-outline (3)</title>
	<style>
		.s0 { fill: #000000 } 
	</style>
	<path id="Forma 1" fill-rule="evenodd" class="s0" d="m97 48.5c0 26.7-21.8 48.5-48.5 48.5-26.7 0-48.5-21.8-48.5-48.5 0-26.7 21.8-48.5 48.5-48.5 26.7 0 48.5 21.8 48.5 48.5zm-10.3 0c0-21.1-17.1-38.2-38.2-38.2-21.1 0-38.2 17.1-38.2 38.2 0 21.1 17.1 38.2 38.2 38.2 21.1 0 38.2-17.1 38.2-38.2zm-8.9 2.5c0 2.2-1.8 4-4 4h-25.8c-2.2 0-4-1.8-4-4v-30.2c0-2.2 1.8-4 4-4 2.2 0 4 1.8 4 4v26.2h21.8c2.2 0 4 1.8 4 4z"/>
</svg>