<svg version="1.2" xmlns="http://www.w3.org/2000/svg" viewBox="0 0 119 97" width="119" height="97">
	<title>paint-board-and-brush</title>
	<style>
		.s0 { fill: #000000 } 
	</style>
	<path id="Forma 1" class="s0" d="m116.6 3.1c-0.2-0.6-0.7-1-1.3-1.1-0.6 0-1.2 0.2-1.6 0.7-2 3-4.8 3.9-8 5.1-2.5 0.9-5.2 1.8-8 3.9-4.1 2.9-5.9 6.9-5 10.7l-0.1 0.1c-1.7-2.5-3.5-4.7-5.5-6.8-9.1-9.5-21.7-15.2-34.8-15.7q-0.9 0-1.7 0c-14.6 0-28.5 6.5-38.3 17.9-9.7 11.4-14 26.1-11.8 40.5q0.3 1.8 0.7 3.6c3.6 15.9 12.8 27.9 25.1 33.1 3.1 1.3 6.2 1.9 9.2 1.9 7.5 0 14-4 17.9-11 1.5-2.7 2.5-5.5 2.9-8.2 0.2-1.7 0.1-3.3-0.1-4.9-0.2-1.6-0.3-3.2-0.1-4.7 0.6-3.6 3.1-5.7 6.7-5.7q1.5 0 3.1 0.5-1.9 3.4-3.3 6.4c-2.1 4.2-3.5 7.6-4.2 10.3-0.5 1.7-1.7 6 1.2 8.1 1 0.6 2.2 0.9 3.4 0.6 1.1-0.2 4.5-0.8 14.2-11.8 2.6-3 5.4-6.4 8.3-10.2 7.5-2.5 13.3-8.8 14.8-16.1q0.6-2.7 0.5-5.7c2.8-4.4 5.3-8.5 7.7-12.8q0.1-0.1 0.2-0.3c3.6-1 6.7-3.8 8.5-7.7 2.6-5.7 2.4-13.1-0.6-20.7zm-40.4 27.1c-1.3 2.1-3.6 3.3-6 3.3-1.3 0-2.6-0.4-3.8-1.1-1.6-1-2.7-2.6-3.1-4.4-0.4-1.9-0.1-3.8 0.9-5.4 1.3-2 3.6-3.3 6-3.3 1.3 0 2.6 0.4 3.7 1.1 1.6 1 2.7 2.6 3.2 4.5 0.4 1.8 0.1 3.7-0.9 5.3zm9.1 12.8c3.6-5.3 7.3-10.5 10.9-15.2q0.9 0.8 1.9 1.6 1.8 1.2 3.7 1.8c-3 5.2-6.3 10.4-10.2 16.2-6.5 9.6-13.2 18.4-19 25-3.2 3.7-6 6.5-8.1 8.3 0.8-2.7 2.4-6.4 4.6-10.7 4-7.8 9.7-17.4 16.2-27zm-62.6 0c-1.3 0-2.6-0.4-3.7-1.1-1.6-1-2.7-2.6-3.1-4.4-0.5-1.9-0.1-3.8 0.9-5.4 1.3-2 3.5-3.3 5.9-3.3 1.4 0 2.7 0.4 3.8 1.1 3.3 2.1 4.3 6.5 2.2 9.8-1.3 2-3.5 3.3-6 3.3zm-7.4 15.6c1.3-2.1 3.6-3.3 6-3.3 1.3 0 2.6 0.3 3.8 1 1.5 1.1 2.7 2.6 3.1 4.5 0.4 1.8 0.1 3.7-0.9 5.3-1.3 2.1-3.6 3.3-6 3.3-1.3 0-2.6-0.4-3.8-1.1-1.6-1-2.7-2.6-3.1-4.4-0.4-1.8-0.1-3.7 0.9-5.3zm22.6-42.1c1.3-2.1 3.5-3.3 6-3.3 1.3 0 2.6 0.4 3.7 1.1 3.3 2.1 4.3 6.5 2.2 9.8-1.3 2-3.5 3.3-5.9 3.3-1.4 0-2.7-0.4-3.8-1.1-1.6-1-2.7-2.6-3.1-4.4-0.4-1.9-0.1-3.8 0.9-5.4z"/>
</svg>